<?xml version="1.0" encoding="UTF-8"?>
<svg id="Photoshop" xmlns="http://www.w3.org/2000/svg" viewBox="0 0 256 256">
  <defs>
    <style>
      .cls-1 {
        stroke-width: 0px;
      }
    </style>
  </defs>
  <path class="cls-1" d="M112.53,95.89c1.7,2.87,2.56,6.16,2.46,9.5,0,4.69-1.07,8.32-3.31,11-2.31,2.69-5.35,4.66-8.75,5.66-3.96,1.29-8.1,1.95-12.26,1.95h-5.67c-1.28,0-2.66-.11-4.16-.22v-35.89c1.45-.16,2.92-.19,4.38-.1,2-.11,4.48-.11,7.25-.11,4.3-.16,8.58.56,12.59,2.13,3.07,1.18,5.69,3.31,7.47,6.08Z"/>
  <path class="cls-1" d="M210.67,3.2H45.33C20.31,3.18.02,23.45,0,48.47c0,.02,0,.04,0,.06v158.94c-.02,25.02,20.25,45.31,45.27,45.33.02,0,.04,0,.06,0h165.34c25.02.02,45.31-20.25,45.33-45.27V48.53c.02-25.02-20.25-45.31-45.27-45.33-.02,0-.04,0-.06,0ZM131.84,127.47c-4.29,5.96-10.27,10.49-17.17,13-7.26,2.67-15.26,3.63-24,3.63-2.56,0-4.27,0-5.34-.11s-2.56-.11-4.58-.11v34.24c.09.73-.43,1.4-1.16,1.5,0,0-.01,0-.02,0h-20.69c-.85,0-1.28-.43-1.28-1.39v-109.75c0-.75.32-1.17,1.07-1.17,1.81,0,3.52,0,6-.11s5.23-.11,8.11-.21,6-.11,9.28-.22,6.5-.1,9.7-.1c8.75,0,16,1.06,22,3.3,5.34,1.83,10.2,4.82,14.24,8.75,3.44,3.45,6.09,7.6,7.79,12.16,1.61,4.45,2.44,9.14,2.45,13.87,0,9.17-2.13,16.75-6.4,22.72h0ZM207.47,169c-2.98,4.26-7.13,7.56-11.95,9.49-5.23,2.24-11.63,3.42-19.31,3.42-4.87.02-9.72-.45-14.5-1.39-3.76-.65-7.42-1.79-10.88-3.41-.76-.37-1.22-1.16-1.18-2v-18.63c-.03-.38.13-.76.43-1,.32-.2.73-.15,1,.11,4.11,2.42,8.57,4.18,13.23,5.22,4.11,1.07,8.34,1.61,12.58,1.6,4.06,0,6.94-.53,8.86-1.49,1.74-.82,2.86-2.56,2.88-4.48,0-1.49-.86-2.88-2.56-4.27-1.7-1.39-5.23-3-10.46-5-5.36-1.89-10.45-4.47-15.14-7.68-3.34-2.38-6.11-5.48-8.11-9.07-1.71-3.37-2.55-7.11-2.45-10.88.02-4.55,1.27-9.01,3.62-12.9,2.71-4.28,6.6-7.69,11.2-9.82,5-2.56,11.31-3.73,18.88-3.73,4.43.01,8.85.35,13.23,1,3.14.43,6.22,1.25,9.16,2.44.48.18.86.54,1.07,1,.12.42.19.85.21,1.28v17.39c0,.42-.19.82-.53,1.07-.62.22-1.3.22-1.92,0-3.22-1.7-6.67-2.92-10.24-3.63-3.92-.89-7.93-1.35-11.95-1.39-2.16-.07-4.32.18-6.4.75-1.33.28-2.5,1.04-3.3,2.13-.54.86-.84,1.86-.86,2.88.05,1.02.43,1.99,1.07,2.78,1.01,1.18,2.25,2.16,3.63,2.88,2.45,1.28,5,2.45,7.57,3.52,5.76,1.94,11.28,4.55,16.43,7.78,3.5,2.2,6.4,5.25,8.42,8.86,1.72,3.41,2.57,7.19,2.46,11,.07,5.04-1.39,9.98-4.19,14.17h0Z"/>
</svg>